<svg width="55" height="55" viewBox="0 0 55 55" fill="none" xmlns="http://www.w3.org/2000/svg">
<path d="M44.375 8.5144H10.625C9.72989 8.5144 8.87145 8.86998 8.23851 9.50292C7.60558 10.1359 7.25 10.9943 7.25 11.8894V24.2862C7.25 43.1883 23.2433 49.4595 26.4453 50.5247C27.1292 50.7573 27.8708 50.7573 28.5547 50.5247C31.7609 49.4595 47.75 43.1883 47.75 24.2862V11.8894C47.75 10.9943 47.3944 10.1359 46.7615 9.50292C46.1285 8.86998 45.2701 8.5144 44.375 8.5144ZM37.1314 23.2083L25.3189 35.0208C25.1622 35.1777 24.9761 35.3022 24.7712 35.3871C24.5664 35.472 24.3468 35.5157 24.125 35.5157C23.9032 35.5157 23.6836 35.472 23.4788 35.3871C23.2739 35.3022 23.0878 35.1777 22.9311 35.0208L17.8686 29.9583C17.5519 29.6417 17.3741 29.2122 17.3741 28.7644C17.3741 28.3166 17.5519 27.8871 17.8686 27.5705C18.1852 27.2539 18.6147 27.076 19.0625 27.076C19.5103 27.076 19.9398 27.2539 20.2564 27.5705L24.125 31.4391L34.7436 20.8205C34.9004 20.6637 35.0865 20.5393 35.2914 20.4545C35.4962 20.3696 35.7158 20.326 35.9375 20.326C36.1592 20.326 36.3788 20.3696 36.5836 20.4545C36.7885 20.5393 36.9746 20.6637 37.1314 20.8205C37.2882 20.9773 37.4126 21.1634 37.4974 21.3683C37.5823 21.5731 37.6259 21.7927 37.6259 22.0144C37.6259 22.2361 37.5823 22.4557 37.4974 22.6605C37.4126 22.8654 37.2882 23.0515 37.1314 23.2083Z" fill="#F8FAFB"/>
</svg>
