<svg width="16" height="17" viewBox="0 0 16 17" fill="none" xmlns="http://www.w3.org/2000/svg">
<path fill-rule="evenodd" clip-rule="evenodd" d="M3.52876 4.02851C3.78911 3.76817 4.21122 3.76817 4.47157 4.02851L8.00016 7.55712L11.5288 4.02851C11.7891 3.76817 12.2112 3.76817 12.4716 4.02851C12.7319 4.28887 12.7319 4.71097 12.4716 4.97133L8.94296 8.49992L12.4716 12.0285C12.7319 12.2889 12.7319 12.711 12.4716 12.9713C12.2112 13.2317 11.7891 13.2317 11.5288 12.9713L8.00016 9.44272L4.47157 12.9713C4.21122 13.2317 3.78911 13.2317 3.52876 12.9713C3.26841 12.711 3.26841 12.2889 3.52876 12.0285L7.05736 8.49992L3.52876 4.97133C3.26841 4.71097 3.26841 4.28887 3.52876 4.02851Z" fill="#181818"/>
</svg>
