<svg width="17" height="17" viewBox="0 0 17 17" fill="none" xmlns="http://www.w3.org/2000/svg">
<path d="M14.1038 6.4309L9.10378 11.4309C9.05735 11.4774 9.0022 11.5143 8.9415 11.5394C8.88081 11.5646 8.81574 11.5775 8.75003 11.5775C8.68433 11.5775 8.61926 11.5646 8.55856 11.5394C8.49786 11.5143 8.44272 11.4774 8.39628 11.4309L3.39628 6.4309C3.30246 6.33708 3.24976 6.20983 3.24976 6.07715C3.24976 5.94447 3.30246 5.81722 3.39628 5.7234C3.4901 5.62958 3.61735 5.57687 3.75003 5.57687C3.88272 5.57687 4.00996 5.62958 4.10378 5.7234L8.75003 10.3703L13.3963 5.7234C13.4427 5.67695 13.4979 5.6401 13.5586 5.61495C13.6193 5.58981 13.6843 5.57687 13.75 5.57687C13.8157 5.57687 13.8808 5.58981 13.9415 5.61495C14.0022 5.6401 14.0573 5.67695 14.1038 5.7234C14.1502 5.76986 14.1871 5.82501 14.2122 5.8857C14.2374 5.9464 14.2503 6.01145 14.2503 6.07715C14.2503 6.14285 14.2374 6.2079 14.2122 6.2686C14.1871 6.3293 14.1502 6.38445 14.1038 6.4309Z" fill="#666D80"/>
</svg>
