<svg width="16" height="16" viewBox="0 0 16 16" fill="none" xmlns="http://www.w3.org/2000/svg">
<path fill-rule="evenodd" clip-rule="evenodd" d="M5.72386 3.14422C7.6888 2.25063 10.0862 2.61085 11.7041 4.22874L13.7053 6.22993C13.7254 6.25003 13.7453 6.2699 13.765 6.28957C14.0364 6.56029 14.2708 6.79414 14.4125 7.06053C14.725 7.64787 14.725 8.35213 14.4125 8.9394C14.2708 9.2058 14.0364 9.43967 13.765 9.71033C13.7453 9.73007 13.7254 9.74993 13.7053 9.77L13.6706 9.80473C13.4103 10.0651 12.9881 10.0651 12.7278 9.80473C12.4674 9.54433 12.4674 9.12227 12.7278 8.86194L12.7625 8.8272C13.1281 8.4616 13.2005 8.37887 13.2355 8.31313C13.3396 8.11733 13.3396 7.8826 13.2355 7.6868C13.2005 7.62107 13.1281 7.53833 12.7625 7.17273L10.7613 5.17155C9.54913 3.95943 7.75133 3.68694 6.27581 4.35795C5.94065 4.51036 5.54539 4.36222 5.39297 4.02706C5.24056 3.6919 5.3887 3.29664 5.72386 3.14422Z" fill="#181818"/>
<path fill-rule="evenodd" clip-rule="evenodd" d="M1.58802 3.0107C1.81407 2.72007 2.23292 2.66771 2.52356 2.89376L14.5235 12.2271C14.8142 12.4531 14.8665 12.872 14.6405 13.1626C14.4145 13.4532 13.9956 13.5056 13.7049 13.2796L11.731 11.7443L11.704 11.7713C9.62127 13.8541 6.24436 13.8541 4.16156 11.7713L2.71632 10.326C2.2984 9.90817 1.93831 9.54811 1.68874 9.22104C1.42127 8.87044 1.21875 8.48057 1.21875 8.00004C1.21875 7.51951 1.42127 7.12964 1.68874 6.77911C1.93831 6.45197 2.2984 6.09193 2.71632 5.67405L3.24576 5.14462L1.70497 3.94623C1.41434 3.72018 1.36198 3.30133 1.58802 3.0107ZM8.5044 9.23471L9.63034 10.1104C9.1796 10.4592 8.614 10.6667 8 10.6667C6.52724 10.6667 5.33334 9.47284 5.33334 8.00004C5.33334 7.62297 5.41161 7.26417 5.55279 6.93897L6.6794 7.81524C6.671 7.87564 6.66667 7.93737 6.66667 8.00004C6.66667 8.73644 7.2636 9.33337 8 9.33337C8.17854 9.33337 8.3488 9.29831 8.5044 9.23471Z" fill="#181818"/>
</svg>
