<svg width="24" height="25" viewBox="0 0 24 25" fill="none" xmlns="http://www.w3.org/2000/svg">
<path d="M21 14.3271V19.5771C21 19.975 20.842 20.3565 20.5607 20.6378C20.2794 20.9191 19.8978 21.0771 19.5 21.0771H4.5C4.10218 21.0771 3.72064 20.9191 3.43934 20.6378C3.15804 20.3565 3 19.975 3 19.5771V14.3271C3 14.1282 3.07902 13.9375 3.21967 13.7968C3.36032 13.6562 3.55109 13.5771 3.75 13.5771C3.94891 13.5771 4.13968 13.6562 4.28033 13.7968C4.42098 13.9375 4.5 14.1282 4.5 14.3271V19.5771H19.5V14.3271C19.5 14.1282 19.579 13.9375 19.7197 13.7968C19.8603 13.6562 20.0511 13.5771 20.25 13.5771C20.4489 13.5771 20.6397 13.6562 20.7803 13.7968C20.921 13.9375 21 14.1282 21 14.3271ZM11.4694 14.8578C11.539 14.9275 11.6217 14.9828 11.7128 15.0206C11.8038 15.0583 11.9014 15.0777 12 15.0777C12.0986 15.0777 12.1962 15.0583 12.2872 15.0206C12.3783 14.9828 12.461 14.9275 12.5306 14.8578L16.2806 11.1078C16.3503 11.0381 16.4056 10.9554 16.4433 10.8643C16.481 10.7733 16.5004 10.6757 16.5004 10.5771C16.5004 10.4786 16.481 10.381 16.4433 10.29C16.4056 10.1989 16.3503 10.1162 16.2806 10.0465C16.2109 9.97684 16.1282 9.92157 16.0372 9.88385C15.9461 9.84614 15.8485 9.82673 15.75 9.82673C15.6515 9.82673 15.5539 9.84614 15.4628 9.88385C15.3718 9.92157 15.2891 9.97684 15.2194 10.0465L12.75 12.5168V3.82715C12.75 3.62824 12.671 3.43747 12.5303 3.29682C12.3897 3.15617 12.1989 3.07715 12 3.07715C11.8011 3.07715 11.6103 3.15617 11.4697 3.29682C11.329 3.43747 11.25 3.62824 11.25 3.82715V12.5168L8.78063 10.0465C8.63989 9.90579 8.44902 9.82673 8.25 9.82673C8.05098 9.82673 7.86011 9.90579 7.71937 10.0465C7.57864 10.1873 7.49958 10.3781 7.49958 10.5771C7.49958 10.7762 7.57864 10.967 7.71937 11.1078L11.4694 14.8578Z" fill="white"/>
</svg>
