<svg width="50" height="50" viewBox="0 0 50 50" fill="none" xmlns="http://www.w3.org/2000/svg">
<path d="M0 25C0 11.1929 11.1929 0 25 0C38.8071 0 50 11.1929 50 25C50 38.8071 38.8071 50 25 50C11.1929 50 0 38.8071 0 25Z" fill="#EDFAFF"/>
<path d="M27 15V19C27 19.5304 27.2107 20.0391 27.5858 20.4142C27.9609 20.7893 28.4696 21 29 21H33" stroke="#007AFF" stroke-width="2" stroke-linecap="round" stroke-linejoin="round"/>
<path d="M28 31C28 30.2044 27.6839 29.4413 27.1213 28.8787C26.5587 28.3161 25.7956 28 25 28C24.2044 28 23.4413 28.3161 22.8787 28.8787C22.3161 29.4413 22 30.2044 22 31" stroke="#007AFF" stroke-width="2" stroke-linecap="round" stroke-linejoin="round"/>
<path d="M28 15H19C18.4696 15 17.9609 15.2107 17.5858 15.5858C17.2107 15.9609 17 16.4696 17 17V33C17 33.5304 17.2107 34.0391 17.5858 34.4142C17.9609 34.7893 18.4696 35 19 35H31C31.5304 35 32.0391 34.7893 32.4142 34.4142C32.7893 34.0391 33 33.5304 33 33V20L28 15Z" stroke="#007AFF" stroke-width="2" stroke-linecap="round" stroke-linejoin="round"/>
<path d="M25 28C26.1046 28 27 27.1046 27 26C27 24.8954 26.1046 24 25 24C23.8954 24 23 24.8954 23 26C23 27.1046 23.8954 28 25 28Z" stroke="#007AFF" stroke-width="2" stroke-linecap="round" stroke-linejoin="round"/>
</svg>
