<svg width="20" height="21" viewBox="0 0 20 21" fill="none" xmlns="http://www.w3.org/2000/svg">
<path d="M15.625 2.83276H5.625C5.29348 2.83276 4.97554 2.96446 4.74112 3.19888C4.5067 3.4333 4.375 3.75124 4.375 4.08276V5.95776H3.125C2.79348 5.95776 2.47554 6.08946 2.24112 6.32388C2.0067 6.5583 1.875 6.87624 1.875 7.20776V14.7078C1.875 15.0393 2.0067 15.3572 2.24112 15.5916C2.47554 15.8261 2.79348 15.9578 3.125 15.9578H4.375V17.8328C4.375 18.1643 4.5067 18.4822 4.74112 18.7166C4.97554 18.9511 5.29348 19.0828 5.625 19.0828H15.625C15.9565 19.0828 16.2745 18.9511 16.5089 18.7166C16.7433 18.4822 16.875 18.1643 16.875 17.8328V4.08276C16.875 3.75124 16.7433 3.4333 16.5089 3.19888C16.2745 2.96446 15.9565 2.83276 15.625 2.83276ZM12.5 9.08276H15.625V12.8328H12.5V9.08276ZM15.625 7.83276H12.5V7.20776C12.5 6.87624 12.3683 6.5583 12.1339 6.32388C11.8995 6.08946 11.5815 5.95776 11.25 5.95776V4.08276H15.625V7.83276ZM5.625 4.08276H10V5.95776H5.625V4.08276ZM3.125 7.20776H11.25V13.4445C11.25 13.4492 11.25 13.4531 11.25 13.4578C11.25 13.4625 11.25 13.4664 11.25 13.471V14.7078H3.125V7.20776ZM5.625 15.9578H10V17.8328H5.625V15.9578ZM11.25 17.8328V15.9578C11.5815 15.9578 11.8995 15.8261 12.1339 15.5916C12.3683 15.3572 12.5 15.0393 12.5 14.7078V14.0828H15.625V17.8328H11.25ZM5.14453 12.4328L6.37422 10.9578L5.14453 9.48276C5.03844 9.35534 4.98732 9.19098 5.00241 9.02586C5.01751 8.86074 5.09757 8.70838 5.225 8.60229C5.35243 8.49621 5.51678 8.44509 5.6819 8.46018C5.84702 8.47527 5.99938 8.55534 6.10547 8.68276L7.1875 9.9812L8.26953 8.68276C8.32206 8.61967 8.3865 8.56754 8.45918 8.52934C8.53185 8.49115 8.61134 8.46765 8.6931 8.46018C8.77486 8.45271 8.85729 8.46141 8.93568 8.4858C9.01408 8.51018 9.0869 8.54977 9.15 8.60229C9.2131 8.65482 9.26523 8.71927 9.30342 8.79194C9.34161 8.86462 9.36511 8.9441 9.37259 9.02586C9.38006 9.10762 9.37135 9.19005 9.34697 9.26845C9.32258 9.34684 9.283 9.41967 9.23047 9.48276L8.00078 10.9578L9.23047 12.4328C9.33656 12.5602 9.38768 12.7245 9.37259 12.8897C9.35749 13.0548 9.27743 13.2071 9.15 13.3132C9.02257 13.4193 8.85822 13.4704 8.6931 13.4553C8.52798 13.4403 8.37562 13.3602 8.26953 13.2328L7.1875 11.9343L6.10547 13.2328C5.99938 13.3602 5.84702 13.4403 5.6819 13.4553C5.51678 13.4704 5.35243 13.4193 5.225 13.3132C5.09757 13.2071 5.01751 13.0548 5.00241 12.8897C4.98732 12.7245 5.03844 12.5602 5.14453 12.4328Z" fill="#117462"/>
</svg>
