<svg width="146" height="30" viewBox="0 0 146 30" fill="none" xmlns="http://www.w3.org/2000/svg">
<path d="M23.023 0.25H30.8996C31.3338 0.25 31.7183 0.530181 31.8514 0.943469L40.7074 28.4435C40.9153 29.0891 40.4338 29.75 39.7555 29.75H32.345C31.9165 29.75 31.5356 29.4769 31.398 29.071L22.0759 1.57104C21.8561 0.922588 22.3383 0.25 23.023 0.25Z" fill="#EC315E"/>
<path d="M10.523 0.25H18.3996C18.8338 0.25 19.2183 0.530181 19.3514 0.943469L28.2074 28.4435C28.4153 29.0891 27.9338 29.75 27.2555 29.75H19.845C19.4165 29.75 19.0356 29.4769 18.898 29.071L9.57593 1.57104C9.35612 0.922588 9.8383 0.25 10.523 0.25Z" fill="#F4F4F4"/>
<path d="M17.7332 0.25H9.85666C9.42247 0.25 9.03789 0.530181 8.9048 0.943469L0.0488684 28.4435C-0.159043 29.0891 0.322458 29.75 1.00073 29.75H8.41121C8.83977 29.75 9.22069 29.4769 9.35828 29.071L18.6803 1.57104C18.9001 0.922588 18.4179 0.25 17.7332 0.25Z" fill="#EC315E"/>
<path d="M48.8561 6.316H52.0481L57.3041 15.412H57.4961L62.7521 6.316H65.9681V23.5H62.7521V15.028L62.9441 12.148H62.7521L58.3841 19.852H56.4401L52.0481 12.148H51.8561L52.0481 15.028V23.5H48.8561V6.316Z" fill="#13254A"/>
<path d="M80.1862 20.668C79.6422 21.628 78.9062 22.404 77.9782 22.996C77.0662 23.588 75.9462 23.884 74.6182 23.884C73.7222 23.884 72.8902 23.732 72.1222 23.428C71.3702 23.108 70.7142 22.668 70.1542 22.108C69.5942 21.548 69.1542 20.892 68.8342 20.14C68.5302 19.372 68.3782 18.532 68.3782 17.62C68.3782 16.772 68.5302 15.972 68.8342 15.22C69.1382 14.452 69.5622 13.788 70.1062 13.228C70.6502 12.652 71.2902 12.196 72.0262 11.86C72.7782 11.524 73.6022 11.356 74.4982 11.356C75.4422 11.356 76.2822 11.516 77.0182 11.836C77.7542 12.14 78.3702 12.572 78.8662 13.132C79.3622 13.676 79.7382 14.324 79.9942 15.076C80.2502 15.828 80.3782 16.644 80.3782 17.524C80.3782 17.636 80.3782 17.732 80.3782 17.812C80.3622 17.908 80.3542 17.996 80.3542 18.076C80.3382 18.156 80.3302 18.244 80.3302 18.34H71.4742C71.5382 18.82 71.6662 19.236 71.8582 19.588C72.0662 19.924 72.3142 20.212 72.6022 20.452C72.9062 20.676 73.2342 20.844 73.5862 20.956C73.9382 21.052 74.2982 21.1 74.6662 21.1C75.3862 21.1 75.9782 20.94 76.4422 20.62C76.9222 20.284 77.2982 19.868 77.5702 19.372L80.1862 20.668ZM77.3302 16.108C77.3142 15.9 77.2422 15.668 77.1143 15.412C77.0023 15.156 76.8262 14.916 76.5862 14.692C76.3622 14.468 76.0742 14.284 75.7222 14.14C75.3862 13.996 74.9782 13.924 74.4982 13.924C73.8262 13.924 73.2342 14.116 72.7222 14.5C72.2102 14.884 71.8502 15.42 71.6422 16.108H77.3302Z" fill="#13254A"/>
<path d="M83.3306 14.428H81.2666V11.74H83.3306V8.14H86.4746V11.74H89.3546V14.428H86.4746V18.988C86.4746 19.26 86.4986 19.516 86.5466 19.756C86.6106 19.98 86.7226 20.172 86.8826 20.332C87.1066 20.588 87.4266 20.716 87.8426 20.716C88.1146 20.716 88.3306 20.692 88.4906 20.644C88.6506 20.58 88.8026 20.5 88.9466 20.404L89.8346 23.164C89.4666 23.34 89.0666 23.468 88.6346 23.548C88.2186 23.644 87.7546 23.692 87.2426 23.692C86.6506 23.692 86.1146 23.604 85.6346 23.428C85.1706 23.236 84.7786 22.98 84.4586 22.66C83.7066 21.94 83.3306 20.916 83.3306 19.588V14.428Z" fill="#13254A"/>
<path d="M91.6674 11.74H94.6194V13.372H94.8114C94.9554 13.084 95.1474 12.82 95.3874 12.58C95.6274 12.34 95.8914 12.132 96.1794 11.956C96.4834 11.78 96.8034 11.644 97.1394 11.548C97.4914 11.452 97.8354 11.404 98.1714 11.404C98.5874 11.404 98.9394 11.444 99.2274 11.524C99.5314 11.604 99.7874 11.708 99.9954 11.836L99.1554 14.692C98.9634 14.596 98.7474 14.524 98.5074 14.476C98.2834 14.412 98.0034 14.38 97.6674 14.38C97.2354 14.38 96.8434 14.468 96.4914 14.644C96.1394 14.804 95.8354 15.036 95.5794 15.34C95.3394 15.644 95.1474 16.004 95.0034 16.42C94.8754 16.82 94.8114 17.26 94.8114 17.74V23.5H91.6674V11.74Z" fill="#13254A"/>
<path d="M106.282 11.356C107.194 11.356 108.026 11.516 108.778 11.836C109.546 12.14 110.202 12.572 110.746 13.132C111.306 13.676 111.738 14.332 112.042 15.1C112.362 15.868 112.522 16.708 112.522 17.62C112.522 18.532 112.362 19.372 112.042 20.14C111.738 20.908 111.306 21.572 110.746 22.132C110.202 22.676 109.546 23.108 108.778 23.428C108.026 23.732 107.194 23.884 106.282 23.884C105.37 23.884 104.53 23.732 103.762 23.428C103.01 23.108 102.354 22.676 101.794 22.132C101.25 21.572 100.818 20.908 100.498 20.14C100.194 19.372 100.042 18.532 100.042 17.62C100.042 16.708 100.194 15.868 100.498 15.1C100.818 14.332 101.25 13.676 101.794 13.132C102.354 12.572 103.01 12.14 103.762 11.836C104.53 11.516 105.37 11.356 106.282 11.356ZM106.282 20.98C106.682 20.98 107.066 20.908 107.434 20.764C107.818 20.604 108.154 20.38 108.442 20.092C108.73 19.804 108.954 19.452 109.114 19.036C109.29 18.62 109.378 18.148 109.378 17.62C109.378 17.092 109.29 16.62 109.114 16.204C108.954 15.788 108.73 15.436 108.442 15.148C108.154 14.86 107.818 14.644 107.434 14.5C107.066 14.34 106.682 14.26 106.282 14.26C105.866 14.26 105.474 14.34 105.106 14.5C104.738 14.644 104.41 14.86 104.122 15.148C103.834 15.436 103.602 15.788 103.426 16.204C103.266 16.62 103.186 17.092 103.186 17.62C103.186 18.148 103.266 18.62 103.426 19.036C103.602 19.452 103.834 19.804 104.122 20.092C104.41 20.38 104.738 20.604 105.106 20.764C105.474 20.908 105.866 20.98 106.282 20.98Z" fill="#13254A"/>
<path d="M117.26 13.276H117.452C117.82 12.684 118.316 12.22 118.94 11.884C119.564 11.532 120.276 11.356 121.076 11.356C121.812 11.356 122.46 11.476 123.02 11.716C123.58 11.956 124.036 12.3 124.388 12.748C124.756 13.18 125.028 13.708 125.204 14.332C125.396 14.94 125.492 15.62 125.492 16.372V23.5H122.348V16.756C122.348 15.908 122.156 15.284 121.772 14.884C121.404 14.468 120.86 14.26 120.14 14.26C119.708 14.26 119.324 14.356 118.988 14.548C118.668 14.724 118.388 14.972 118.148 15.292C117.924 15.596 117.748 15.964 117.62 16.396C117.508 16.812 117.452 17.26 117.452 17.74V23.5H114.308V11.74H117.26V13.276Z" fill="#13254A"/>
<path d="M129.841 10.036C129.569 10.036 129.305 9.988 129.049 9.892C128.809 9.78 128.593 9.636 128.401 9.46C128.225 9.268 128.081 9.052 127.969 8.812C127.873 8.572 127.825 8.308 127.825 8.02C127.825 7.732 127.873 7.468 127.969 7.228C128.081 6.988 128.225 6.78 128.401 6.604C128.593 6.412 128.809 6.268 129.049 6.172C129.305 6.06 129.569 6.004 129.841 6.004C130.401 6.004 130.881 6.204 131.281 6.604C131.681 6.988 131.881 7.46 131.881 8.02C131.881 8.58 131.681 9.06 131.281 9.46C130.881 9.844 130.401 10.036 129.841 10.036ZM128.281 23.5V11.74H131.425V23.5H128.281Z" fill="#13254A"/>
<path d="M145.343 20.5C144.831 21.492 144.111 22.308 143.183 22.948C142.271 23.572 141.127 23.884 139.751 23.884C138.839 23.884 137.999 23.732 137.231 23.428C136.479 23.108 135.823 22.668 135.263 22.108C134.719 21.548 134.287 20.892 133.967 20.14C133.663 19.372 133.511 18.532 133.511 17.62C133.511 16.708 133.663 15.868 133.967 15.1C134.287 14.332 134.719 13.676 135.263 13.132C135.823 12.572 136.479 12.14 137.231 11.836C137.999 11.516 138.839 11.356 139.751 11.356C141.111 11.356 142.255 11.668 143.183 12.292C144.111 12.916 144.791 13.724 145.223 14.716L142.343 15.916C142.071 15.372 141.719 14.964 141.287 14.692C140.871 14.404 140.343 14.26 139.703 14.26C139.287 14.26 138.895 14.34 138.527 14.5C138.159 14.66 137.831 14.884 137.543 15.172C137.271 15.46 137.055 15.812 136.895 16.228C136.735 16.644 136.655 17.108 136.655 17.62C136.655 18.132 136.735 18.596 136.895 19.012C137.055 19.428 137.271 19.78 137.543 20.068C137.831 20.356 138.159 20.58 138.527 20.74C138.895 20.9 139.287 20.98 139.703 20.98C140.359 20.98 140.911 20.836 141.359 20.548C141.823 20.244 142.191 19.812 142.463 19.252L145.343 20.5Z" fill="#13254A"/>
</svg>
