<svg width="15" height="16" viewBox="0 0 15 16" fill="none" xmlns="http://www.w3.org/2000/svg">
<path d="M14.5 10.8328C14.5 10.9985 14.4342 11.1575 14.3169 11.2747C14.1997 11.3919 14.0408 11.4578 13.875 11.4578H12V12.7078H13.25C13.4158 12.7078 13.5747 12.7736 13.6919 12.8908C13.8092 13.008 13.875 13.167 13.875 13.3328C13.875 13.4985 13.8092 13.6575 13.6919 13.7747C13.5747 13.8919 13.4158 13.9578 13.25 13.9578H12V15.2078C12 15.3735 11.9342 15.5325 11.8169 15.6497C11.6997 15.7669 11.5408 15.8328 11.375 15.8328C11.2092 15.8328 11.0503 15.7669 10.9331 15.6497C10.8158 15.5325 10.75 15.3735 10.75 15.2078V10.8328C10.75 10.667 10.8158 10.508 10.9331 10.3908C11.0503 10.2736 11.2092 10.2078 11.375 10.2078H13.875C14.0408 10.2078 14.1997 10.2736 14.3169 10.3908C14.4342 10.508 14.5 10.667 14.5 10.8328ZM4.1875 12.3953C4.1875 12.9754 3.95703 13.5318 3.5468 13.9421C3.13656 14.3523 2.58016 14.5828 2 14.5828H1.375V15.2078C1.375 15.3735 1.30915 15.5325 1.19194 15.6497C1.07473 15.7669 0.91576 15.8328 0.75 15.8328C0.58424 15.8328 0.425269 15.7669 0.308058 15.6497C0.190848 15.5325 0.125 15.3735 0.125 15.2078V10.8328C0.125 10.667 0.190848 10.508 0.308058 10.3908C0.425269 10.2736 0.58424 10.2078 0.75 10.2078H2C2.58016 10.2078 3.13656 10.4382 3.5468 10.8485C3.95703 11.2587 4.1875 11.8151 4.1875 12.3953ZM2.9375 12.3953C2.9375 12.1466 2.83873 11.9082 2.66291 11.7324C2.4871 11.5565 2.24864 11.4578 2 11.4578H1.375V13.3328H2C2.24864 13.3328 2.4871 13.234 2.66291 13.0582C2.83873 12.8824 2.9375 12.6439 2.9375 12.3953ZM9.8125 13.0203C9.8125 13.7662 9.51618 14.4816 8.98874 15.009C8.46129 15.5364 7.74592 15.8328 7 15.8328H5.75C5.58424 15.8328 5.42527 15.7669 5.30806 15.6497C5.19085 15.5325 5.125 15.3735 5.125 15.2078V10.8328C5.125 10.667 5.19085 10.508 5.30806 10.3908C5.42527 10.2736 5.58424 10.2078 5.75 10.2078H7C7.74592 10.2078 8.46129 10.5041 8.98874 11.0315C9.51618 11.559 9.8125 12.2743 9.8125 13.0203ZM8.5625 13.0203C8.5625 12.6059 8.39788 12.2084 8.10485 11.9154C7.81183 11.6224 7.4144 11.4578 7 11.4578H6.375V14.5828H7C7.4144 14.5828 7.81183 14.4181 8.10485 14.1251C8.39788 13.8321 8.5625 13.4347 8.5625 13.0203ZM0.125 7.70776V2.08276C0.125 1.75124 0.256696 1.4333 0.491116 1.19888C0.725537 0.96446 1.04348 0.832764 1.375 0.832764H8.875C8.9571 0.832699 9.03841 0.848811 9.11428 0.880179C9.19015 0.911546 9.2591 0.957555 9.31719 1.01558L13.6922 5.39058C13.7502 5.44866 13.7962 5.51761 13.8276 5.59348C13.859 5.66935 13.8751 5.75066 13.875 5.83276V7.70776C13.875 7.87352 13.8092 8.0325 13.6919 8.14971C13.5747 8.26692 13.4158 8.33276 13.25 8.33276C13.0842 8.33276 12.9253 8.26692 12.8081 8.14971C12.6908 8.0325 12.625 7.87352 12.625 7.70776V6.45776H8.875C8.70924 6.45776 8.55027 6.39192 8.43306 6.27471C8.31585 6.1575 8.25 5.99852 8.25 5.83276V2.08276H1.375V7.70776C1.375 7.87352 1.30915 8.0325 1.19194 8.14971C1.07473 8.26692 0.91576 8.33276 0.75 8.33276C0.58424 8.33276 0.425269 8.26692 0.308058 8.14971C0.190848 8.0325 0.125 7.87352 0.125 7.70776ZM9.5 5.20776H11.7414L9.5 2.96636V5.20776Z" fill="#D50038"/>
</svg>
